<mxfile host="app.diagrams.net" modified="2024-04-08T17:54:57.753Z" agent="Mozilla/5.0 (Windows NT 10.0; Win64; x64) AppleWebKit/537.36 (KHTML, like Gecko) Chrome/123.0.0.0 Safari/537.36" etag="3hX5-iW8DmyC0nzANxNF" version="24.2.2" type="device">
  <diagram name="Page-1" id="jx741WVj_RJFd6O5MR8i">
    <mxGraphModel dx="2412" dy="810" grid="1" gridSize="10" guides="1" tooltips="1" connect="1" arrows="1" fold="1" page="1" pageScale="1" pageWidth="850" pageHeight="1100" math="0" shadow="0">
      <root>
        <mxCell id="0" />
        <mxCell id="1" parent="0" />
        <mxCell id="x_3VOnPhglZwVYIp-Xem-1" value="&lt;b&gt;&lt;font style=&quot;font-size: 14px;&quot;&gt;S3 to store CFN&lt;br&gt;&lt;/font&gt;aws-infra-as-code-cfn-store&lt;/b&gt;" style="sketch=0;points=[[0,0,0],[0.25,0,0],[0.5,0,0],[0.75,0,0],[1,0,0],[0,1,0],[0.25,1,0],[0.5,1,0],[0.75,1,0],[1,1,0],[0,0.25,0],[0,0.5,0],[0,0.75,0],[1,0.25,0],[1,0.5,0],[1,0.75,0]];outlineConnect=0;fontColor=#232F3E;fillColor=#7AA116;strokeColor=#ffffff;dashed=0;verticalLabelPosition=bottom;verticalAlign=top;align=center;html=1;fontSize=12;fontStyle=0;aspect=fixed;shape=mxgraph.aws4.resourceIcon;resIcon=mxgraph.aws4.s3;" vertex="1" parent="1">
          <mxGeometry x="280" y="120" width="80" height="80" as="geometry" />
        </mxCell>
        <mxCell id="x_3VOnPhglZwVYIp-Xem-5" value="&lt;font style=&quot;font-size: 14px;&quot;&gt;&lt;b&gt;infrastructure-cfn.zip&lt;/b&gt;&lt;/font&gt;" style="shape=image;html=1;verticalAlign=top;verticalLabelPosition=bottom;labelBackgroundColor=#ffffff;imageAspect=0;aspect=fixed;image=https://cdn4.iconfinder.com/data/icons/file-extension-names-vol-8/512/2-128.png" vertex="1" parent="1">
          <mxGeometry x="90" y="120" width="80" height="80" as="geometry" />
        </mxCell>
        <mxCell id="x_3VOnPhglZwVYIp-Xem-7" style="edgeStyle=orthogonalEdgeStyle;rounded=0;orthogonalLoop=1;jettySize=auto;html=1;entryX=0;entryY=0.5;entryDx=0;entryDy=0;entryPerimeter=0;" edge="1" parent="1" source="x_3VOnPhglZwVYIp-Xem-5" target="x_3VOnPhglZwVYIp-Xem-1">
          <mxGeometry relative="1" as="geometry" />
        </mxCell>
        <mxCell id="x_3VOnPhglZwVYIp-Xem-8" value="&lt;font style=&quot;font-size: 12px;&quot;&gt;&lt;b&gt;Push to&lt;br&gt;Github&lt;/b&gt;&lt;/font&gt;" style="edgeStyle=orthogonalEdgeStyle;rounded=0;orthogonalLoop=1;jettySize=auto;html=1;" edge="1" parent="1" source="x_3VOnPhglZwVYIp-Xem-9" target="x_3VOnPhglZwVYIp-Xem-11">
          <mxGeometry relative="1" as="geometry" />
        </mxCell>
        <mxCell id="x_3VOnPhglZwVYIp-Xem-9" value="&lt;b&gt;infrastructure-cfn&lt;/b&gt;&lt;br&gt;&lt;div&gt;&lt;b&gt;.yaml&lt;/b&gt;&lt;/div&gt;" style="whiteSpace=wrap;html=1;shape=mxgraph.basic.document" vertex="1" parent="1">
          <mxGeometry x="-630" y="120" width="120" height="80" as="geometry" />
        </mxCell>
        <mxCell id="x_3VOnPhglZwVYIp-Xem-10" value="&lt;font style=&quot;font-size: 12px;&quot;&gt;&lt;b&gt;Github Workflow&lt;br&gt;triggered on&lt;br&gt;Master merge&lt;/b&gt;&lt;/font&gt;" style="edgeStyle=orthogonalEdgeStyle;rounded=0;orthogonalLoop=1;jettySize=auto;html=1;" edge="1" parent="1" source="x_3VOnPhglZwVYIp-Xem-11" target="x_3VOnPhglZwVYIp-Xem-12">
          <mxGeometry relative="1" as="geometry" />
        </mxCell>
        <mxCell id="x_3VOnPhglZwVYIp-Xem-11" value="&lt;font style=&quot;font-size: 14px;&quot;&gt;&lt;b&gt;Github&lt;/b&gt;&lt;/font&gt;" style="dashed=0;outlineConnect=0;html=1;align=center;labelPosition=center;verticalLabelPosition=bottom;verticalAlign=top;shape=mxgraph.weblogos.github" vertex="1" parent="1">
          <mxGeometry x="-400" y="120" width="80" height="80" as="geometry" />
        </mxCell>
        <mxCell id="x_3VOnPhglZwVYIp-Xem-13" value="&lt;font style=&quot;font-size: 12px;&quot;&gt;&lt;b&gt;Creates&lt;br&gt;ZIP&lt;/b&gt;&lt;/font&gt;" style="edgeStyle=orthogonalEdgeStyle;rounded=0;orthogonalLoop=1;jettySize=auto;html=1;entryX=0;entryY=0.5;entryDx=0;entryDy=0;" edge="1" parent="1" source="x_3VOnPhglZwVYIp-Xem-12" target="x_3VOnPhglZwVYIp-Xem-5">
          <mxGeometry relative="1" as="geometry" />
        </mxCell>
        <mxCell id="x_3VOnPhglZwVYIp-Xem-12" value="&lt;font style=&quot;font-size: 14px;&quot;&gt;&lt;b&gt;Github Workflow&lt;/b&gt;&lt;/font&gt;" style="verticalLabelPosition=bottom;aspect=fixed;html=1;shape=mxgraph.salesforce.workflow;labelPosition=center;align=center;verticalAlign=top;" vertex="1" parent="1">
          <mxGeometry x="-120" y="120" width="80" height="80" as="geometry" />
        </mxCell>
      </root>
    </mxGraphModel>
  </diagram>
</mxfile>
